<?xml version="1.0" encoding="UTF-8"?><svg xmlns="http://www.w3.org/2000/svg" viewBox="0 0 136.66 106.41"><defs><style>.d{stroke-width:12px;}.d,.e{fill:none;}.d,.e,.f,.g{stroke:#f6f6f6;stroke-miterlimit:10;}.e{stroke-width:10px;}.f{fill:#231f20;stroke-width:7px;}.g{stroke-width:2px;}</style></defs><g id="a"/><g id="b"><g id="c"><g><path class="g" d="M132.92,18.53V100.34c-3.07-1.93-7.53-4.28-13.29-5.92-7.11-2.02-13.3-2.13-17.37-1.9-5.4,.14-12.27,.81-19.94,2.84-5.41,1.43-10.05,3.22-13.86,4.97-3.55-1.9-8.31-4.01-14.18-5.54-7.4-1.93-13.9-2.22-18.56-2.08-5.73,.16-12.76,.87-20.54,2.84-4.36,1.1-8.26,2.43-11.67,3.79V19.58c.21-.98,9.92-3.02,9.92-3.02l-.25-9.96c1.96-.7,5.74-.37,13.29,.29,5.45,.48,9.57,1.06,11.23,1.3,4.99,.73,13.42,3.32,13.42,3.32,0,0,5.08,1.76,8,3.17,2.88,1.4,5.76,2.8,8.63,4.2,.76-.43,3.26-1.48,4.11-1.94,3.07-1.63,2.62-1.29,6.86-2.89,3.59-1.36,8.25-2.95,12.64-3.98,11.66-2.74,25.26-4.12,32.19-3.65l-.05,10.13c4.42,.73,7.06,1.37,9.44,1.99Z"/><g><path class="e" d="M133.61,100.31c-4.45-2.96-15.87-9.7-31.98-10.05-17.71-.39-30.3,7.17-34.66,10.07"/><path class="e" d="M69.69,102.53c-4.43-3.58-15.77-11.74-31.73-12.23-17.55-.54-30,8.49-34.3,11.96"/><line class="f" x1="133.16" y1="18.4" x2="133.16" y2="98.61"/><line class="f" x1="3.5" y1="18.55" x2="3.69" y2="100.34"/></g><g><path class="d" d="M70.71,19.87c-3.48-2.4-12.52-8.1-26.45-11.44-15.31-3.67-27.21-2.26-31.37-1.62"/><path class="d" d="M122.53,7.21c-4.09-.76-14.46-2.22-27.9,.93-14.76,3.46-24.23,10.38-27.47,12.93"/><line class="f" x1="12.66" y1="3.81" x2="14.21" y2="86.03"/><line class="f" x1="121.75" y1="3.81" x2="121.75" y2="86.25"/><line class="f" x1="68.86" y1="16.61" x2="68.11" y2="97.7"/><path class="e" d="M70.16,96.58c-3.44-2.39-12.38-8.07-26.17-11.39-15.16-3.64-26.95-2.2-31.07-1.55"/><path class="e" d="M122.89,83.93c-4.16-.81-14.72-2.37-28.36,.81-14.99,3.5-24.58,10.61-27.86,13.24"/></g></g></g></g></svg>