<?xml version="1.0" encoding="UTF-8"?><svg xmlns="http://www.w3.org/2000/svg" viewBox="0 0 109.63 133.86"><defs><style>.d{stroke-width:5px;}.d,.e{fill:none;stroke:#f6f6f6;stroke-miterlimit:10;}.e{stroke-width:2px;}</style></defs><g id="a"/><g id="b"><g id="c"><g><g><line class="d" x1="34.71" y1="2.5" x2="75.48" y2="2.91"/><line class="d" x1="38.22" y1="11.32" x2="38.22" y2="48.01"/><line class="d" x1="71.21" y1="11.04" x2="70.59" y2="48.09"/><line class="d" x1="38.22" y1="47.12" x2="3.6" y2="121.8"/><line class="d" x1="6.19" y1="130.97" x2="105.5" y2="131.36"/><line class="d" x1="106.43" y1="122.26" x2="70.61" y2="46.82"/><path class="d" d="M36.12,2.55c-.34,.2-2.9,1.76-3.17,4.4-.25,2.49,1.64,4.91,4.72,5.8"/><path class="d" d="M71.19,12.75c.32-.1,2.9-.94,3.91-3.59,.8-2.1,.31-4.53-1.26-6.26"/><path class="d" d="M7.19,130.98c-.33-.07-2.92-.69-4.13-3.22-.96-2-.67-4.42,.72-6.25"/><path class="d" d="M103.87,131.4c.6-.36,1.91-1.28,2.69-3,1.34-2.95-.03-5.75-.23-6.15"/></g><circle class="e" cx="65.79" cy="95.91" r="6.95"/><circle class="e" cx="46.5" cy="107.6" r="4.74"/><circle class="e" cx="45.39" cy="75.68" r="5.05"/><path class="d" d="M77.83,63.1c-4.59-7.22-8.48-8.83-11.21-8.91-6.82-.2-9.45,8.94-16.27,8.24-5.55-.57-7.26-6.98-12.25-6.36-3.37,.42-5.84,3.74-7.37,6.39"/></g></g></g></svg>